# xmcd
#
# Track frame offsets:
#	150
#	58365
#	86807
#	127455
#	144015
#	196180
#	223315
#
# Disc length: 3572 seconds
#
# Revision: 0
# Processed by: cddbd v1.5.2PL0 Copyright (c) Steve Scherf et al.
# Submitted via: audiograbber 1.83.01
#
DISCID=720df207
DTITLE=Jimi Hendrix - Band Of Gypsys- Live At The Fillmore East-Disc 1
DYEAR=1970
DGENRE=Psychedelic Rock
TTITLE0=Stone Free
TTITLE1=Power Of Soul
TTITLE2=Hear My Train A Comin'
TTITLE3=Izabella
TTITLE4=Machine Gun
TTITLE5=Voodoo Chile (Slight Return)
TTITLE6=We Gotta Live Together
EXTD=
EXTT0=
EXTT1=
EXTT2=
EXTT3=
EXTT4=
EXTT5=
EXTT6=
PLAYORDER=
